<svg width="37" height="48" viewBox="0 0 37 48" fill="none" xmlns="http://www.w3.org/2000/svg">
<path fill-rule="evenodd" clip-rule="evenodd" d="M15.0113 41.7216C15.7905 41.7217 16.2245 42.136 16.4217 42.5009H16.441L16.4805 41.8198H17.2002C17.1806 42.1429 17.1616 42.5061 17.1616 43.053V45.6772C17.1616 46.7131 16.9541 47.3443 16.52 47.7389C16.0859 48.1532 15.4447 48.2813 14.8726 48.2813C14.3005 48.2812 13.7385 48.1531 13.3736 47.9065L13.5807 47.2851C13.8767 47.4726 14.3501 47.6406 14.9025 47.6406C15.741 47.6406 16.363 47.206 16.363 46.0616V45.5587H16.3427C16.0862 45.9829 15.6029 46.3189 14.9025 46.3189C13.7877 46.3188 12.9786 45.3713 12.9786 44.1185C12.9786 42.5894 13.9755 41.7216 15.0113 41.7216ZM15.1587 42.3429C14.3796 42.3431 13.8178 43.0038 13.8177 44.0491C13.8177 44.937 14.2613 45.6772 15.1491 45.6772C15.6522 45.6772 16.1064 45.3618 16.284 44.8391C16.3333 44.701 16.3524 44.5427 16.3524 44.4046V43.5857C16.3524 43.4477 16.3526 43.3293 16.3032 43.211C16.1553 42.7375 15.7506 42.3429 15.1587 42.3429Z" fill="#ADACAC"/>
<path fill-rule="evenodd" clip-rule="evenodd" d="M2.28495 41.7119C3.37986 41.7119 4.19903 42.6386 4.19921 44.0096C4.19921 45.6372 3.21251 46.4372 2.14719 46.4374C1.54542 46.4374 1.02241 46.1802 0.756053 45.7264H0.735822V48.183H-0.0724623V43.29L-0.0830596 43.2803C-0.0830596 42.6983 -0.102829 42.2344 -0.122559 41.8102H0.618288L0.656824 42.5896H0.677055C1.01246 42.0371 1.5451 41.7119 2.28495 41.7119ZM2.02869 42.3526C1.46638 42.3526 0.94376 42.7573 0.785918 43.369C0.756326 43.4676 0.726193 43.5957 0.726188 43.7042V44.4836C0.726189 44.6019 0.745968 44.7202 0.765687 44.8189C0.913656 45.391 1.40696 45.7755 1.99883 45.7755C2.86694 45.7755 3.36972 45.0657 3.36973 44.0298C3.36973 43.1223 2.89671 42.3527 2.02869 42.3526Z" fill="#ADACAC"/>
<path fill-rule="evenodd" clip-rule="evenodd" d="M10.098 41.7013C11.3509 41.7013 12.2686 42.6487 12.2686 44.0298C12.2685 45.697 11.1141 46.4268 10.019 46.4268C8.79598 46.4267 7.85928 45.5294 7.85913 44.0992C7.85913 42.5899 8.84524 41.7014 10.098 41.7013ZM10.0788 42.3227C9.11205 42.3227 8.68769 43.2208 8.68764 44.079C8.68764 45.0654 9.25956 45.8149 10.0585 45.815C10.8575 45.815 11.4303 45.0756 11.4304 44.0597C11.4304 43.2903 11.0453 42.3229 10.0788 42.3227Z" fill="#ADACAC"/>
<path fill-rule="evenodd" clip-rule="evenodd" d="M22.9131 41.7119C24.2939 41.712 24.6297 42.6583 24.6298 43.5559V45.2428C24.6298 45.6374 24.6496 46.0227 24.7088 46.3285H23.9689L23.8996 45.7562H23.8697C23.6132 46.1113 23.1301 46.4266 22.4892 46.4268C21.5718 46.4268 21.1077 45.7859 21.1077 45.1348C21.1077 44.0398 22.0744 43.4477 23.8206 43.4576V43.369C23.8206 42.9941 23.7219 42.3227 22.7946 42.3227C22.3704 42.3227 21.9359 42.4518 21.6202 42.6589L21.4333 42.1156C21.8082 41.869 22.3509 41.7119 22.9131 41.7119ZM23.8504 44.0202C22.9529 44.0005 21.9365 44.158 21.9362 45.0356C21.9362 45.5683 22.2914 45.815 22.7156 45.815C23.3075 45.815 23.6728 45.4406 23.8109 45.0559C23.8405 44.977 23.86 44.8785 23.8601 44.7996V44.0202H23.8504Z" fill="#ADACAC"/>
<path d="M35.126 41.7013C35.5797 41.7013 35.9841 41.8299 36.2406 41.9778L36.0335 42.5799C35.856 42.4715 35.5307 42.3132 35.1067 42.3131C34.6233 42.3131 34.3466 42.5895 34.3466 42.9248C34.3466 43.2997 34.6131 43.4677 35.205 43.6946C35.9842 43.9905 36.389 44.3851 36.389 45.0559C36.3889 45.8449 35.7771 46.4074 34.7021 46.4075C34.2088 46.4075 33.7451 46.2886 33.4294 46.1011L33.6366 45.4797C33.8832 45.6376 34.3071 45.8053 34.7213 45.8054C35.323 45.8054 35.5999 45.5096 35.5999 45.1348C35.5999 44.7402 35.3626 44.5332 34.7608 44.3063C33.9519 44.0202 33.5672 43.5657 33.5672 43.0231C33.5674 42.2933 34.1594 41.7013 35.126 41.7013Z" fill="#ADACAC"/>
<path d="M30.9429 41.7119C31.5447 41.7119 32.4226 42.106 32.4227 43.6744V46.3381H31.624V43.7832C31.624 42.9151 31.3081 42.3921 30.6472 42.3921C30.1837 42.3921 29.8191 42.7373 29.6809 43.1416C29.6415 43.25 29.6116 43.408 29.6115 43.5559V46.3478H28.8119V43.6454C28.8119 42.9253 28.4963 42.4017 27.8649 42.4017C27.3522 42.4019 26.9778 42.8163 26.8495 43.2206C26.8002 43.3389 26.7801 43.4871 26.7801 43.6252V46.3478H25.9815V43.053L25.9709 43.0337C25.9709 42.57 25.9708 42.1851 25.9314 41.8102H26.652L26.6915 42.5404H26.7213C26.9778 42.1064 27.3917 41.712 28.1414 41.7119C28.753 41.7119 29.2264 42.0867 29.4237 42.6194H29.4439C29.582 42.3629 29.7593 42.1749 29.9468 42.027C30.2131 41.8199 30.5189 41.712 30.9429 41.7119Z" fill="#ADACAC"/>
<path d="M7.22714 41.7119C7.31588 41.7119 7.38527 41.7113 7.46414 41.7408V42.5202C7.38524 42.5005 7.29611 42.4913 7.18765 42.4913C6.60581 42.4915 6.20102 42.9249 6.08264 43.5462C6.06291 43.6547 6.0441 43.7935 6.0441 43.9316V46.3381H5.23485V43.2312L5.22522 43.2206C5.22522 42.688 5.22517 42.2343 5.18572 41.8102H5.90537L5.93524 42.6984H5.97474C6.18187 42.0968 6.67482 41.7121 7.22714 41.7119Z" fill="#ADACAC"/>
<path d="M20.4661 41.7119C20.5548 41.7119 20.6242 41.7113 20.703 41.7408V42.5202C20.6242 42.5005 20.535 42.4913 20.4266 42.4913C19.8448 42.4915 19.4409 42.925 19.3225 43.5462C19.3028 43.6547 19.283 43.7935 19.283 43.9316V46.3381H18.4738V43.2312L18.4641 43.2206C18.4641 42.688 18.4641 42.2343 18.4246 41.8102H19.1443L19.1741 42.6984H19.2136C19.4208 42.0968 19.9138 41.7121 20.4661 41.7119Z" fill="#ADACAC"/>
<path d="M12.2984 35.1907C12.2985 37.1143 13.1465 37.9228 14.2907 37.9229C15.5633 37.9229 16.3726 37.0848 16.3726 35.1907V30.1204H17.4872V35.1214C17.4872 37.7553 16.0962 38.8304 14.2416 38.8304C12.4856 38.8304 11.1636 37.8242 11.1636 35.1705V30.1204H12.2984V35.1907Z" fill="#ADACAC"/>
<path fill-rule="evenodd" clip-rule="evenodd" d="M28.8716 29.9817C31.1701 29.9818 32.729 31.7776 32.729 34.3227L32.7233 34.5848C32.616 37.3586 30.8651 38.8303 28.7435 38.8304C26.5535 38.8304 24.8862 37.0751 24.8861 34.4807C24.8861 31.758 26.5731 29.9817 28.8716 29.9817ZM28.8321 30.8796C26.9874 30.8796 26.0797 32.5666 26.0797 34.4509C26.0798 36.2856 27.0759 37.9227 28.8119 37.9229C30.5481 37.9229 31.5642 36.3055 31.5643 34.3622C31.5643 32.6556 30.6768 30.8796 28.8321 30.8796Z" fill="#ADACAC"/>
<path d="M24.7975 31.0568H22.1732V38.6927H21.0585V31.0568H18.4535V30.1204H24.7975V31.0568Z" fill="#ADACAC"/>
<path fill-rule="evenodd" clip-rule="evenodd" d="M10.2859 38.683H9.1019L8.18475 35.9894H5.14622L4.25798 38.683H3.11347L6.02387 30.1098H7.35528L10.2859 38.683ZM6.64526 31.0963C6.51702 31.6093 6.37942 32.1227 6.21173 32.6455L5.37262 35.1214H7.9545L7.11924 32.6647C6.93186 32.1025 6.80335 31.5994 6.67512 31.0963H6.64526Z" fill="#ADACAC"/>
<path d="M18.083 1.30522C20.1342 1.30522 21.8616 1.74784 23.265 2.6331C24.6901 3.51836 25.7697 4.80307 26.5038 6.48722C27.2379 8.14978 27.605 10.1902 27.605 12.6085C27.605 15.1779 27.1515 17.3478 26.2447 19.1184C25.3378 20.8889 24.0855 22.2276 22.4877 23.1344C20.8899 24.0413 19.0223 24.4947 16.8847 24.4947C15.8267 24.4947 14.8011 24.3867 13.8079 24.1708C12.8362 23.9549 11.9834 23.6202 11.2493 23.1668L12.48 20.6406C13.0845 21.0292 13.7539 21.3099 14.488 21.4827C15.2437 21.6338 16.0318 21.7094 16.8523 21.7094C19.141 21.7094 20.9655 20.9968 22.3258 19.5718C23.6861 18.1251 24.3662 15.9876 24.3662 13.1591C24.3662 12.7056 24.3446 12.1658 24.3014 11.5397C24.2583 10.9135 24.1611 10.2982 24.0099 9.69359L25.0787 10.7948C24.7765 11.788 24.269 12.6301 23.5565 13.321C22.8656 13.9903 22.0235 14.4977 21.0303 14.8432C20.0587 15.1671 18.9899 15.329 17.8239 15.329C16.3341 15.329 15.0062 15.0483 13.8403 14.4869C12.6743 13.9256 11.7567 13.1375 11.0873 12.1227C10.418 11.0863 10.0833 9.86632 10.0833 8.46286C10.0833 6.99463 10.4288 5.73151 11.1197 4.67352C11.8322 3.59393 12.7931 2.76265 14.0022 2.17968C15.2329 1.5967 16.5932 1.30522 18.083 1.30522ZM18.2126 3.92861C17.241 3.92861 16.3773 4.11213 15.6216 4.47919C14.8659 4.84625 14.2721 5.35366 13.8403 6.00141C13.43 6.64916 13.2249 7.42646 13.2249 8.33331C13.2249 9.672 13.6891 10.7408 14.6176 11.5397C15.546 12.317 16.7983 12.7056 18.3745 12.7056C19.4109 12.7056 20.3178 12.5113 21.0951 12.1227C21.894 11.734 22.5093 11.205 22.9412 10.5357C23.3946 9.86632 23.6213 9.12141 23.6213 8.30092C23.6213 7.50203 23.4162 6.77871 23.0059 6.13096C22.5957 5.48321 21.9911 4.95421 21.1922 4.54397C20.3933 4.13373 19.4001 3.92861 18.2126 3.92861Z" fill="#ADACAC"/>
</svg>
