<svg width="270" height="81" viewBox="0 0 270 81" fill="none" xmlns="http://www.w3.org/2000/svg">
<mask id="path-1-outside-1_31807_290" maskUnits="userSpaceOnUse" x="-0.711792" y="-0.402832" width="271" height="81" fill="black">
<rect fill="white" x="-0.711792" y="-0.402832" width="271" height="81"/>
<path d="M7.61117 61.5972V8.50847H27.0521C31.4886 8.50847 35.2273 10.0288 38.268 13.0696C41.3088 16.0605 42.8292 19.6745 42.8292 23.9117C42.8292 27.75 41.4334 30.9154 38.6419 33.4078C43.876 35.9999 46.493 40.1872 46.493 45.9696C46.493 50.4062 44.9228 54.1199 41.7823 57.1108C38.6419 60.1017 34.7288 61.5972 30.043 61.5972H7.61117ZM18.4532 51.6524H29.2953C31.3391 51.6524 32.9592 51.104 34.1555 50.0074C35.3519 48.8609 35.9501 47.3903 35.9501 45.5958C35.9501 43.8012 35.3519 42.3307 34.1555 41.1842C32.9592 40.0377 31.3391 39.4644 29.2953 39.4644H18.4532V51.6524ZM18.4532 30.2674H26.0053C27.8995 30.2674 29.4199 29.719 30.5664 28.6224C31.7129 27.4758 32.2862 26.0552 32.2862 24.3603C32.2862 22.7153 31.688 21.3195 30.4917 20.173C29.3451 18.9767 27.8497 18.3785 26.0053 18.3785H18.4532V30.2674ZM63.6002 61.5972H54.2536V8.50847H65.1705V43.1283L92.313 8.50847H101.66V61.5972H90.8923V26.9026L63.6002 61.5972ZM152.579 72.6635V61.5972H118.782V72.6635H108.987V51.2785H109.884C114.42 51.2785 116.688 46.2438 116.688 36.1744V8.50847H155.57V51.2785H162.375V72.6635H152.579ZM127.53 18.8271V37.1465C127.53 43.2778 126.583 47.9885 124.689 51.2785H144.728V18.8271H127.53ZM169.956 61.5972V8.50847H203.005V18.8271H180.798V29.7439H198.519V40.0626H180.798V51.2785H203.005V61.5972H169.956ZM222.953 47.0912C226.194 50.3812 230.107 52.0262 234.693 52.0262C239.279 52.0262 243.167 50.3812 246.357 47.0912C249.597 43.7514 251.217 39.7386 251.217 35.0528C251.217 30.3671 249.597 26.3792 246.357 23.0892C243.167 19.7493 239.279 18.0794 234.693 18.0794C230.107 18.0794 226.194 19.7493 222.953 23.0892C219.763 26.3792 218.168 30.3671 218.168 35.0528C218.168 39.7386 219.763 43.7514 222.953 47.0912ZM254.059 54.4938C248.725 59.8275 242.27 62.4944 234.693 62.4944C227.116 62.4944 220.635 59.8275 215.252 54.4938C209.918 49.1101 207.251 42.6298 207.251 35.0528C207.251 27.4758 209.918 21.0205 215.252 15.6867C220.635 10.303 227.116 7.61119 234.693 7.61119C242.27 7.61119 248.725 10.303 254.059 15.6867C259.443 21.0205 262.134 27.4758 262.134 35.0528C262.134 42.6298 259.443 49.1101 254.059 54.4938Z"/>
</mask>
<path d="M7.61117 61.5972V8.50847H27.0521C31.4886 8.50847 35.2273 10.0288 38.268 13.0696C41.3088 16.0605 42.8292 19.6745 42.8292 23.9117C42.8292 27.75 41.4334 30.9154 38.6419 33.4078C43.876 35.9999 46.493 40.1872 46.493 45.9696C46.493 50.4062 44.9228 54.1199 41.7823 57.1108C38.6419 60.1017 34.7288 61.5972 30.043 61.5972H7.61117ZM18.4532 51.6524H29.2953C31.3391 51.6524 32.9592 51.104 34.1555 50.0074C35.3519 48.8609 35.9501 47.3903 35.9501 45.5958C35.9501 43.8012 35.3519 42.3307 34.1555 41.1842C32.9592 40.0377 31.3391 39.4644 29.2953 39.4644H18.4532V51.6524ZM18.4532 30.2674H26.0053C27.8995 30.2674 29.4199 29.719 30.5664 28.6224C31.7129 27.4758 32.2862 26.0552 32.2862 24.3603C32.2862 22.7153 31.688 21.3195 30.4917 20.173C29.3451 18.9767 27.8497 18.3785 26.0053 18.3785H18.4532V30.2674ZM63.6002 61.5972H54.2536V8.50847H65.1705V43.1283L92.313 8.50847H101.66V61.5972H90.8923V26.9026L63.6002 61.5972ZM152.579 72.6635V61.5972H118.782V72.6635H108.987V51.2785H109.884C114.42 51.2785 116.688 46.2438 116.688 36.1744V8.50847H155.57V51.2785H162.375V72.6635H152.579ZM127.53 18.8271V37.1465C127.53 43.2778 126.583 47.9885 124.689 51.2785H144.728V18.8271H127.53ZM169.956 61.5972V8.50847H203.005V18.8271H180.798V29.7439H198.519V40.0626H180.798V51.2785H203.005V61.5972H169.956ZM222.953 47.0912C226.194 50.3812 230.107 52.0262 234.693 52.0262C239.279 52.0262 243.167 50.3812 246.357 47.0912C249.597 43.7514 251.217 39.7386 251.217 35.0528C251.217 30.3671 249.597 26.3792 246.357 23.0892C243.167 19.7493 239.279 18.0794 234.693 18.0794C230.107 18.0794 226.194 19.7493 222.953 23.0892C219.763 26.3792 218.168 30.3671 218.168 35.0528C218.168 39.7386 219.763 43.7514 222.953 47.0912ZM254.059 54.4938C248.725 59.8275 242.27 62.4944 234.693 62.4944C227.116 62.4944 220.635 59.8275 215.252 54.4938C209.918 49.1101 207.251 42.6298 207.251 35.0528C207.251 27.4758 209.918 21.0205 215.252 15.6867C220.635 10.303 227.116 7.61119 234.693 7.61119C242.27 7.61119 248.725 10.303 254.059 15.6867C259.443 21.0205 262.134 27.4758 262.134 35.0528C262.134 42.6298 259.443 49.1101 254.059 54.4938Z" fill="white"/>
<path d="M7.61117 61.5972H-2.87294e-05V69.2084H7.61117V61.5972ZM7.61117 8.50847V0.897271H-2.87294e-05V8.50847H7.61117ZM38.268 13.0696L32.8861 18.4515L32.9083 18.4738L32.9308 18.4958L38.268 13.0696ZM38.6419 33.4078L33.5727 27.7303L25.1724 35.2306L35.2641 40.2284L38.6419 33.4078ZM41.7823 57.1108L36.5332 51.5992H36.5332L41.7823 57.1108ZM18.4532 51.6524H10.842V59.2636H18.4532V51.6524ZM34.1555 50.0074L39.2986 55.618L39.3608 55.561L39.4217 55.5026L34.1555 50.0074ZM34.1555 41.1842L28.8893 46.6794L28.8893 46.6794L34.1555 41.1842ZM18.4532 39.4644V31.8532H10.842V39.4644H18.4532ZM18.4532 30.2674H10.842V37.8786H18.4532V30.2674ZM30.5664 28.6224L35.8275 34.1225L35.8886 34.0641L35.9484 34.0043L30.5664 28.6224ZM30.4917 20.173L24.9965 25.4393L25.1085 25.5562L25.2254 25.6682L30.4917 20.173ZM18.4532 18.3785V10.7673H10.842V18.3785H18.4532ZM7.61117 61.5972H15.2224V8.50847H7.61117H-2.87294e-05V61.5972H7.61117ZM7.61117 8.50847V16.1197H27.0521V8.50847V0.897271H7.61117V8.50847ZM27.0521 8.50847V16.1197C29.5415 16.1197 31.3225 16.8879 32.8861 18.4515L38.268 13.0696L43.65 7.68768C39.132 3.16977 33.4357 0.897271 27.0521 0.897271V8.50847ZM38.268 13.0696L32.9308 18.4958C34.5277 20.0666 35.218 21.7302 35.218 23.9117H42.8292H50.4404C50.4404 17.6189 48.0899 12.0544 43.6053 7.64339L38.268 13.0696ZM42.8292 23.9117H35.218C35.218 25.6453 34.7002 26.7237 33.5727 27.7303L38.6419 33.4078L43.7111 39.0853C48.1667 35.1071 50.4404 29.8547 50.4404 23.9117H42.8292ZM38.6419 33.4078L35.2641 40.2284C36.851 41.0143 37.6421 41.8321 38.076 42.5263C38.507 43.216 38.8818 44.257 38.8818 45.9697H46.493H54.1042C54.1042 41.8998 53.1705 37.956 50.9845 34.4584C48.8014 30.9654 45.6669 28.3934 42.0197 26.5872L38.6419 33.4078ZM46.493 45.9697H38.8818C38.8818 48.3772 38.1266 50.0818 36.5332 51.5992L41.7823 57.1108L47.0314 62.6224C51.719 58.158 54.1042 52.4351 54.1042 45.9697H46.493ZM41.7823 57.1108L36.5332 51.5992C34.9281 53.128 32.9467 53.986 30.043 53.986V61.5972V69.2084C36.5108 69.2084 42.3557 67.0755 47.0314 62.6224L41.7823 57.1108ZM30.043 61.5972V53.986H7.61117V61.5972V69.2084H30.043V61.5972ZM18.4532 51.6524V59.2636H29.2953V51.6524V44.0412H18.4532V51.6524ZM29.2953 51.6524V59.2636C32.7298 59.2636 36.361 58.3108 39.2986 55.618L34.1555 50.0074L29.0124 44.3968C29.1146 44.3031 29.2267 44.221 29.3401 44.1548C29.4526 44.0891 29.5452 44.0513 29.6031 44.0317C29.7152 43.9937 29.6444 44.0412 29.2953 44.0412V51.6524ZM34.1555 50.0074L39.4217 55.5026C42.2488 52.7933 43.5613 49.2738 43.5613 45.5958H35.9501H28.3389C28.3389 45.6374 28.3346 45.4634 28.4512 45.1767C28.5731 44.8771 28.7493 44.6464 28.8893 44.5122L34.1555 50.0074ZM35.9501 45.5958H43.5613C43.5613 41.9177 42.2488 38.3982 39.4217 35.689L34.1555 41.1842L28.8893 46.6794C28.7493 46.5452 28.5731 46.3145 28.4512 46.0149C28.3346 45.7282 28.3389 45.5542 28.3389 45.5958H35.9501ZM34.1555 41.1842L39.4217 35.689C36.4945 32.8837 32.8188 31.8532 29.2953 31.8532V39.4644V47.0756C29.6117 47.0756 29.6475 47.1203 29.5043 47.0696C29.4318 47.0439 29.3295 46.9993 29.2123 46.9277C29.0943 46.8557 28.9844 46.7705 28.8893 46.6794L34.1555 41.1842ZM29.2953 39.4644V31.8532H18.4532V39.4644V47.0756H29.2953V39.4644ZM18.4532 39.4644H10.842V51.6524H18.4532H26.0644V39.4644H18.4532ZM18.4532 30.2674V37.8786H26.0053V30.2674V22.6562H18.4532V30.2674ZM26.0053 30.2674V37.8786C29.4549 37.8786 32.9968 36.8301 35.8275 34.1225L30.5664 28.6224L25.3054 23.1222C25.4001 23.0316 25.5134 22.9426 25.6407 22.8641C25.7676 22.7858 25.8863 22.7316 25.984 22.6963C26.1808 22.6253 26.2203 22.6562 26.0053 22.6562V30.2674ZM30.5664 28.6224L35.9484 34.0043C38.5927 31.3599 39.8974 27.9719 39.8974 24.3603H32.2862H24.675C24.675 24.3356 24.6825 24.1352 24.798 23.8489C24.9163 23.5558 25.0773 23.3476 25.1845 23.2404L30.5664 28.6224ZM32.2862 24.3603H39.8974C39.8974 20.6234 38.4398 17.248 35.7579 14.6778L30.4917 20.173L25.2254 25.6682C25.153 25.5988 24.981 25.4028 24.8418 25.0779C24.702 24.7518 24.675 24.4819 24.675 24.3603H32.2862ZM30.4917 20.173L35.9868 14.9068C33.2352 12.0355 29.6659 10.7673 26.0053 10.7673V18.3785V25.9897C26.0984 25.9897 25.9555 26.0028 25.6834 25.8939C25.3941 25.7782 25.1519 25.6015 24.9965 25.4393L30.4917 20.173ZM26.0053 18.3785V10.7673H18.4532V18.3785V25.9897H26.0053V18.3785ZM18.4532 18.3785H10.842V30.2674H18.4532H26.0644V18.3785H18.4532ZM63.6002 61.5972V69.2084H67.2969L69.5824 66.3029L63.6002 61.5972ZM54.2536 61.5972H46.6424V69.2084H54.2536V61.5972ZM54.2536 8.50847V0.897271H46.6424V8.50847H54.2536ZM65.1705 8.50847H72.7817V0.897271H65.1705V8.50847ZM65.1705 43.1283H57.5593V65.1721L71.1602 47.8244L65.1705 43.1283ZM92.313 8.50847V0.897271H88.6087L86.3232 3.8124L92.313 8.50847ZM101.66 8.50847H109.271V0.897271H101.66V8.50847ZM101.66 61.5972V69.2084H109.271V61.5972H101.66ZM90.8923 61.5972H83.2811V69.2084H90.8923V61.5972ZM90.8923 26.9026H98.5035V4.91651L84.9102 22.1968L90.8923 26.9026ZM63.6002 61.5972V53.986H54.2536V61.5972V69.2084H63.6002V61.5972ZM54.2536 61.5972H61.8648V8.50847H54.2536H46.6424V61.5972H54.2536ZM54.2536 8.50847V16.1197H65.1705V8.50847V0.897271H54.2536V8.50847ZM65.1705 8.50847H57.5593V43.1283H65.1705H72.7817V8.50847H65.1705ZM65.1705 43.1283L71.1602 47.8244L98.3027 13.2045L92.313 8.50847L86.3232 3.8124L59.1807 38.4322L65.1705 43.1283ZM92.313 8.50847V16.1197H101.66V8.50847V0.897271H92.313V8.50847ZM101.66 8.50847H94.0484V61.5972H101.66H109.271V8.50847H101.66ZM101.66 61.5972V53.986H90.8923V61.5972V69.2084H101.66V61.5972ZM90.8923 61.5972H98.5035V26.9026H90.8923H83.2811V61.5972H90.8923ZM90.8923 26.9026L84.9102 22.1968L57.6181 56.8914L63.6002 61.5972L69.5824 66.3029L96.8745 31.6084L90.8923 26.9026ZM152.579 72.6635H144.968V80.2747H152.579V72.6635ZM152.579 61.5972H160.191V53.986H152.579V61.5972ZM118.782 61.5972V53.986H111.171V61.5972H118.782ZM118.782 72.6635V80.2747H126.393V72.6635H118.782ZM108.987 72.6635H101.376V80.2747H108.987V72.6635ZM108.987 51.2785V43.6673H101.376V51.2785H108.987ZM116.688 8.50847V0.897271H109.077V8.50847H116.688ZM155.57 8.50847H163.181V0.897271H155.57V8.50847ZM155.57 51.2785H147.959V58.8897H155.57V51.2785ZM162.375 51.2785H169.986V43.6673H162.375V51.2785ZM162.375 72.6635V80.2747H169.986V72.6635H162.375ZM127.53 18.8271V11.2159H119.919V18.8271H127.53ZM124.689 51.2785L118.093 47.4808L111.524 58.8897H124.689V51.2785ZM144.728 51.2785V58.8897H152.339V51.2785H144.728ZM144.728 18.8271H152.339V11.2159H144.728V18.8271ZM152.579 72.6635H160.191V61.5972H152.579H144.968V72.6635H152.579ZM152.579 61.5972V53.986H118.782V61.5972V69.2084H152.579V61.5972ZM118.782 61.5972H111.171V72.6635H118.782H126.393V61.5972H118.782ZM118.782 72.6635V65.0523H108.987V72.6635V80.2747H118.782V72.6635ZM108.987 72.6635H116.598V51.2785H108.987H101.376V72.6635H108.987ZM108.987 51.2785V58.8897H109.884V51.2785V43.6673H108.987V51.2785ZM109.884 51.2785V58.8897C112.524 58.8897 115.131 58.1232 117.388 56.4529C119.557 54.8481 120.983 52.7232 121.927 50.6287C123.731 46.623 124.3 41.5433 124.3 36.1744H116.688H109.077C109.077 40.875 108.511 43.3473 108.048 44.3763C107.857 44.7991 107.866 44.5623 108.334 44.2161C108.89 43.8045 109.512 43.6673 109.884 43.6673V51.2785ZM116.688 36.1744H124.3V8.50847H116.688H109.077V36.1744H116.688ZM116.688 8.50847V16.1197H155.57V8.50847V0.897271H116.688V8.50847ZM155.57 8.50847H147.959V51.2785H155.57H163.181V8.50847H155.57ZM155.57 51.2785V58.8897H162.375V51.2785V43.6673H155.57V51.2785ZM162.375 51.2785H154.763V72.6635H162.375H169.986V51.2785H162.375ZM162.375 72.6635V65.0523H152.579V72.6635V80.2747H162.375V72.6635ZM127.53 18.8271H119.919V37.1465H127.53H135.142V18.8271H127.53ZM127.53 37.1465H119.919C119.919 42.6814 119.032 45.8501 118.093 47.4808L124.689 51.2785L131.285 55.0762C134.135 50.1269 135.142 43.8742 135.142 37.1465H127.53ZM124.689 51.2785V58.8897H144.728V51.2785V43.6673H124.689V51.2785ZM144.728 51.2785H152.339V18.8271H144.728H137.117V51.2785H144.728ZM144.728 18.8271V11.2159H127.53V18.8271V26.4383H144.728V18.8271ZM169.956 61.5972H162.345V69.2084H169.956V61.5972ZM169.956 8.50847V0.897271H162.345V8.50847H169.956ZM203.005 8.50847H210.617V0.897271H203.005V8.50847ZM203.005 18.8271V26.4383H210.617V18.8271H203.005ZM180.798 18.8271V11.2159H173.187V18.8271H180.798ZM180.798 29.7439H173.187V37.3551H180.798V29.7439ZM198.519 29.7439H206.13V22.1328H198.519V29.7439ZM198.519 40.0626V47.6738H206.13V40.0626H198.519ZM180.798 40.0626V32.4514H173.187V40.0626H180.798ZM180.798 51.2785H173.187V58.8897H180.798V51.2785ZM203.005 51.2785H210.617V43.6673H203.005V51.2785ZM203.005 61.5972V69.2084H210.617V61.5972H203.005ZM169.956 61.5972H177.567V8.50847H169.956H162.345V61.5972H169.956ZM169.956 8.50847V16.1197H203.005V8.50847V0.897271H169.956V8.50847ZM203.005 8.50847H195.394V18.8271H203.005H210.617V8.50847H203.005ZM203.005 18.8271V11.2159H180.798V18.8271V26.4383H203.005V18.8271ZM180.798 18.8271H173.187V29.7439H180.798H188.409V18.8271H180.798ZM180.798 29.7439V37.3551H198.519V29.7439V22.1328H180.798V29.7439ZM198.519 29.7439H190.908V40.0626H198.519H206.13V29.7439H198.519ZM198.519 40.0626V32.4514H180.798V40.0626V47.6738H198.519V40.0626ZM180.798 40.0626H173.187V51.2785H180.798H188.409V40.0626H180.798ZM180.798 51.2785V58.8897H203.005V51.2785V43.6673H180.798V51.2785ZM203.005 51.2785H195.394V61.5972H203.005H210.617V51.2785H203.005ZM203.005 61.5972V53.986H169.956V61.5972V69.2084H203.005V61.5972ZM222.953 47.0912L217.45 52.3485L217.49 52.3905L217.531 52.4319L222.953 47.0912ZM246.357 47.0912L240.894 41.7915L240.893 41.7927L246.357 47.0912ZM246.357 23.0892L240.854 28.3465L240.894 28.3885L240.934 28.4299L246.357 23.0892ZM222.953 23.0892L217.491 17.7894L217.489 17.7907L222.953 23.0892ZM254.059 54.4938L259.441 59.8757L254.059 54.4938ZM215.252 54.4938L209.845 59.8506L209.87 59.8757L209.895 59.9007L215.252 54.4938ZM215.252 15.6867L220.634 21.0686L215.252 15.6867ZM254.059 15.6867L248.652 21.0435L248.677 21.0686L248.702 21.0936L254.059 15.6867ZM222.953 47.0912L217.531 52.4319C222.19 57.1632 228.052 59.6374 234.693 59.6374V52.0262V44.4151C232.161 44.4151 230.197 43.5993 228.376 41.7506L222.953 47.0912ZM234.693 52.0262V59.6374C241.336 59.6374 247.196 57.1592 251.821 52.3897L246.357 47.0912L240.893 41.7927C239.138 43.6032 237.221 44.4151 234.693 44.4151V52.0262ZM246.357 47.0912L251.82 52.391C256.449 47.6199 258.829 41.7018 258.829 35.0528H251.217H243.606C243.606 37.7754 242.746 39.8828 240.894 41.7915L246.357 47.0912ZM251.217 35.0528H258.829C258.829 28.4016 256.446 22.4857 251.78 17.7485L246.357 23.0892L240.934 28.4299C242.749 30.2726 243.606 32.3325 243.606 35.0528H251.217ZM246.357 23.0892L251.861 17.8319C247.246 13.0007 241.375 10.4682 234.693 10.4682V18.0794V25.6906C237.183 25.6906 239.088 26.4979 240.854 28.3465L246.357 23.0892ZM234.693 18.0794V10.4682C228.014 10.4682 222.14 12.9964 217.491 17.7894L222.953 23.0892L228.416 28.3889C230.247 26.5022 232.199 25.6906 234.693 25.6906V18.0794ZM222.953 23.0892L217.489 17.7907C212.888 22.5359 210.557 28.4385 210.557 35.0528H218.168H225.779C225.779 32.2956 226.638 30.2224 228.417 28.3877L222.953 23.0892ZM218.168 35.0528H210.557C210.557 41.6652 212.885 47.5699 217.45 52.3485L222.953 47.0912L228.457 41.8339C226.641 39.9329 225.779 37.812 225.779 35.0528H218.168ZM254.059 54.4938L248.677 49.1118C244.778 53.011 240.261 54.8832 234.693 54.8832V62.4944V70.1056C244.278 70.1056 252.672 66.644 259.441 59.8757L254.059 54.4938ZM234.693 62.4944V54.8832C229.123 54.8832 224.567 53.0089 220.609 49.0868L215.252 54.4938L209.895 59.9007C216.704 66.6462 225.109 70.1056 234.693 70.1056V62.4944ZM215.252 54.4938L220.659 49.1369C216.737 45.1782 214.862 40.623 214.862 35.0528H207.251H199.64C199.64 44.6366 203.099 53.042 209.845 59.8506L215.252 54.4938ZM207.251 35.0528H214.862C214.862 29.4843 216.734 24.9678 220.634 21.0686L215.252 15.6867L209.87 10.3047C203.101 17.0731 199.64 25.4674 199.64 35.0528H207.251ZM215.252 15.6867L220.634 21.0686C224.598 17.1046 229.145 15.2224 234.693 15.2224V7.61119V-4.76837e-06C225.086 -4.76837e-06 216.673 3.50148 209.87 10.3047L215.252 15.6867ZM234.693 7.61119V15.2224C240.238 15.2224 244.747 17.1023 248.652 21.0435L254.059 15.6867L259.466 10.3298C252.703 3.50378 244.301 -4.76837e-06 234.693 -4.76837e-06V7.61119ZM254.059 15.6867L248.702 21.0936C252.643 24.9983 254.523 29.5072 254.523 35.0528H262.134H269.746C269.746 25.4445 266.242 17.0426 259.416 10.2798L254.059 15.6867ZM262.134 35.0528H254.523C254.523 40.6002 252.641 45.1478 248.677 49.1118L254.059 54.4938L259.441 59.8757C266.244 53.0724 269.746 44.6594 269.746 35.0528H262.134Z" fill="#FF976A" mask="url(#path-1-outside-1_31807_290)"/>
</svg>
